<?xml version="1.0" standalone="no"?>
<!DOCTYPE svg PUBLIC "-//W3C//DTD SVG 20010904//EN"
 "http://www.w3.org/TR/2001/REC-SVG-20010904/DTD/svg10.dtd">
<svg version="1.0" xmlns="http://www.w3.org/2000/svg"
 width="383.000000pt" height="383.000000pt" viewBox="0 0 383.000000 383.000000"
 preserveAspectRatio="xMidYMid meet">
<metadata>
Created by potrace 1.11, written by Peter Selinger 2001-2013
</metadata>
<g transform="translate(0.000000,383.000000) scale(0.100000,-0.100000)"
fill="#000000" stroke="none">
<path d="M1863 3270 c0 -47 2 -66 4 -42 2 23 2 61 0 85 -2 23 -4 4 -4 -43z"/>
<path d="M1972 3310 c0 -19 2 -27 5 -17 2 9 2 25 0 35 -3 9 -5 1 -5 -18z"/>
<path d="M1620 3329 c0 -17 57 -158 62 -154 3 3 -8 38 -24 78 -29 68 -38 87
-38 76z"/>
<path d="M1753 3255 c0 -38 2 -53 4 -32 2 20 2 52 0 70 -2 17 -4 1 -4 -38z"/>
<path d="M2056 3239 c-9 -34 -15 -64 -12 -66 5 -5 21 45 31 95 11 54 -1 36
-19 -29z"/>
<path d="M1490 3278 c0 -4 31 -98 45 -137 3 -8 8 -11 11 -8 3 3 -6 36 -21 74
-26 64 -35 83 -35 71z"/>
<path d="M2154 3233 c-10 -26 -21 -52 -23 -57 -2 -5 1 -6 7 -2 11 6 45 97 38
103 -2 2 -12 -18 -22 -44z"/>
<path d="M2272 3208 c-18 -33 -30 -63 -27 -66 6 -7 4 -10 38 62 15 32 27 60
25 61 -2 2 -18 -24 -36 -57z"/>
<path d="M1958 3230 c-3 -16 -1 -30 4 -30 4 0 8 14 8 30 0 17 -2 30 -4 30 -2
0 -6 -13 -8 -30z"/>
<path d="M1361 3220 c-1 -11 61 -156 71 -165 17 -16 -1 32 -38 105 -18 36 -33
63 -33 60z"/>
<path d="M2384 3153 c-43 -53 -51 -75 -14 -33 30 34 55 70 47 70 -2 0 -17 -17
-33 -37z"/>
<path d="M1276 3093 c9 -21 21 -51 26 -68 12 -33 28 -56 28 -38 0 13 -60 143
-66 143 -2 0 3 -17 12 -37z"/>
<path d="M2476 3086 c-34 -42 -46 -63 -28 -52 10 6 75 96 69 96 -3 0 -21 -20
-41 -44z"/>
<path d="M1160 3037 c0 -5 16 -27 35 -50 19 -22 35 -44 35 -49 0 -4 5 -8 10
-8 7 0 7 6 0 18 -15 27 -80 98 -80 89z"/>
<path d="M2562 2990 c-24 -28 -40 -50 -37 -50 6 0 66 66 78 86 15 25 2 15 -41
-36z"/>
<path d="M1097 2879 c29 -29 55 -51 58 -48 2 3 -21 27 -53 54 l-57 48 52 -54z"/>
<path d="M2672 2869 c-29 -17 -51 -34 -48 -36 5 -5 106 55 106 63 0 6 -2 5
-58 -27z"/>
<path d="M990 2785 c0 -6 90 -45 104 -44 6 0 -13 11 -43 25 -56 25 -61 27 -61
19z"/>
<path d="M2751 2744 c-29 -14 -51 -27 -48 -30 5 -6 107 43 107 51 0 6 5 8 -59
-21z"/>
<path d="M911 2616 c11 -9 129 -15 129 -6 0 6 -30 10 -67 10 -36 0 -64 -2 -62
-4z"/>
<path d="M2833 2613 c9 -2 23 -2 30 0 6 3 -1 5 -18 5 -16 0 -22 -2 -12 -5z"/>
<path d="M2740 2600 c0 -5 14 -7 33 -3 45 8 47 13 4 13 -20 0 -37 -4 -37 -10z"/>
<path d="M897 2503 c18 -2 50 -2 70 0 21 2 7 4 -32 4 -38 0 -55 -2 -38 -4z"/>
<path d="M1613 2479 c-22 -4 -59 -17 -81 -28 -55 -28 -138 -122 -159 -182 -10
-27 -22 -49 -28 -49 -5 0 -98 20 -205 45 -119 27 -198 41 -204 35 -12 -12 -11
-13 214 -63 l195 -44 5 -74 c9 -113 66 -195 159 -227 53 -18 140 -14 191 9 59
26 135 101 167 164 l26 49 20 -44 c26 -55 108 -139 162 -165 62 -30 164 -32
219 -6 86 42 146 140 146 240 l0 36 197 43 c182 39 225 53 212 67 -3 3 -97
-15 -209 -40 -111 -25 -203 -44 -204 -43 -2 2 -8 21 -14 43 -27 94 -131 203
-215 226 -128 34 -247 -11 -300 -115 l-15 -30 -15 30 c-48 92 -156 142 -264
123z m146 -39 c45 -22 88 -70 109 -120 23 -55 12 -182 -21 -246 -51 -100 -163
-174 -261 -174 -128 1 -226 125 -213 269 11 128 103 247 217 282 49 15 130 10
169 -11z m455 3 c82 -30 174 -137 191 -223 11 -53 8 -135 -5 -176 -16 -47 -89
-118 -138 -132 -209 -63 -420 183 -346 403 20 57 80 120 126 134 53 15 119 12
172 -6z"/>
<path d="M1692 2163 c2 -22 8 -28 28 -28 20 0 26 6 28 28 3 24 0 27 -28 27
-28 0 -31 -3 -28 -27z"/>
<path d="M2027 2192 c-27 -6 -19 -56 10 -60 31 -5 48 30 25 50 -9 8 -25 13
-35 10z"/>
<path d="M2770 2480 c0 -5 16 -10 36 -10 21 0 33 4 29 10 -3 6 -19 10 -36 10
-16 0 -29 -4 -29 -10z"/>
<path d="M1000 2110 c0 -5 5 -10 10 -10 6 0 10 5 10 10 0 6 -4 10 -10 10 -5 0
-10 -4 -10 -10z"/>
<path d="M1000 2060 c0 -5 5 -10 10 -10 6 0 10 5 10 10 0 6 -4 10 -10 10 -5 0
-10 -4 -10 -10z"/>
<path d="M2681 2054 c0 -11 3 -14 6 -6 3 7 2 16 -1 19 -3 4 -6 -2 -5 -13z"/>
<path d="M1070 2030 c0 -5 5 -10 10 -10 6 0 10 5 10 10 0 6 -4 10 -10 10 -5 0
-10 -4 -10 -10z"/>
<path d="M1110 2010 c0 -5 7 -10 15 -10 8 0 15 5 15 10 0 6 -7 10 -15 10 -8 0
-15 -4 -15 -10z"/>
<path d="M2630 1949 c0 -5 5 -7 10 -4 6 3 10 8 10 11 0 2 -4 4 -10 4 -5 0 -10
-5 -10 -11z"/>
<path d="M1010 1940 c0 -5 5 -10 10 -10 6 0 10 5 10 10 0 6 -4 10 -10 10 -5 0
-10 -4 -10 -10z"/>
<path d="M1100 1930 c0 -5 5 -10 10 -10 6 0 10 5 10 10 0 6 -4 10 -10 10 -5 0
-10 -4 -10 -10z"/>
<path d="M2655 1901 c-3 -5 -1 -12 5 -16 5 -3 10 1 10 9 0 18 -6 21 -15 7z"/>
<path d="M1110 1845 c0 -8 5 -15 10 -15 6 0 10 7 10 15 0 8 -4 15 -10 15 -5 0
-10 -7 -10 -15z"/>
<path d="M2560 1844 c0 -8 5 -12 10 -9 6 3 10 10 10 16 0 5 -4 9 -10 9 -5 0
-10 -7 -10 -16z"/>
<path d="M1895 1790 c3 -5 8 -10 11 -10 2 0 4 5 4 10 0 6 -5 10 -11 10 -5 0
-7 -4 -4 -10z"/>
<path d="M1725 1780 c-3 -5 -1 -10 4 -10 6 0 11 5 11 10 0 6 -2 10 -4 10 -3 0
-8 -4 -11 -10z"/>
<path d="M1191 1764 c0 -11 3 -14 6 -6 3 7 2 16 -1 19 -3 4 -6 -2 -5 -13z"/>
<path d="M1790 1766 c0 -9 5 -16 10 -16 6 0 10 4 10 9 0 6 -4 13 -10 16 -5 3
-10 -1 -10 -9z"/>
<path d="M1840 1770 c0 -5 7 -10 16 -10 8 0 12 5 9 10 -3 6 -10 10 -16 10 -5
0 -9 -4 -9 -10z"/>
<path d="M1941 1764 c0 -11 3 -14 6 -6 3 7 2 16 -1 19 -3 4 -6 -2 -5 -13z"/>
<path d="M1966 1765 c-3 -8 -1 -15 4 -15 13 0 22 18 11 24 -5 3 -11 -1 -15 -9z"/>
<path d="M1680 1751 c0 -6 5 -13 10 -16 6 -3 10 1 10 9 0 9 -4 16 -10 16 -5 0
-10 -4 -10 -9z"/>
<path d="M1993 1746 c-12 -14 -7 -26 9 -26 5 0 6 5 3 10 -3 6 -1 10 4 10 6 0
11 5 11 10 0 14 -13 12 -27 -4z"/>
<path d="M2071 1744 c0 -11 3 -14 6 -6 3 7 2 16 -1 19 -3 4 -6 -2 -5 -13z"/>
<path d="M1815 1739 c-11 -17 1 -21 15 -4 8 9 8 15 2 15 -6 0 -14 -5 -17 -11z"/>
<path d="M1775 1730 c3 -5 8 -10 11 -10 2 0 4 5 4 10 0 6 -5 10 -11 10 -5 0
-7 -4 -4 -10z"/>
<path d="M2560 1729 c0 -5 5 -7 10 -4 6 3 10 8 10 11 0 2 -4 4 -10 4 -5 0 -10
-5 -10 -11z"/>
<path d="M1940 1716 c0 -9 5 -16 10 -16 6 0 10 4 10 9 0 6 -4 13 -10 16 -5 3
-10 -1 -10 -9z"/>
<path d="M1300 1710 c0 -5 5 -10 11 -10 5 0 7 5 4 10 -3 6 -8 10 -11 10 -2 0
-4 -4 -4 -10z"/>
<path d="M1650 1710 c0 -5 5 -10 10 -10 6 0 10 5 10 10 0 6 -4 10 -10 10 -5 0
-10 -4 -10 -10z"/>
<path d="M1740 1709 c0 -5 5 -7 10 -4 6 3 10 8 10 11 0 2 -4 4 -10 4 -5 0 -10
-5 -10 -11z"/>
<path d="M1835 1710 c-3 -5 -2 -10 4 -10 5 0 13 5 16 10 3 6 2 10 -4 10 -5 0
-13 -4 -16 -10z"/>
<path d="M2450 1704 c0 -8 5 -12 10 -9 6 3 10 10 10 16 0 5 -4 9 -10 9 -5 0
-10 -7 -10 -16z"/>
<path d="M1690 1690 c0 -5 5 -10 10 -10 6 0 10 5 10 10 0 6 -4 10 -10 10 -5 0
-10 -4 -10 -10z"/>
<path d="M1952 1679 c2 -7 10 -15 17 -17 8 -3 12 1 9 9 -2 7 -10 15 -17 17 -8
3 -12 -1 -9 -9z"/>
<path d="M2070 1679 c0 -5 5 -7 10 -4 6 3 10 8 10 11 0 2 -4 4 -10 4 -5 0 -10
-5 -10 -11z"/>
<path d="M2108 1683 c7 -3 16 -2 19 1 4 3 -2 6 -13 5 -11 0 -14 -3 -6 -6z"/>
<path d="M1650 1670 c0 -5 5 -10 10 -10 6 0 10 5 10 10 0 6 -4 10 -10 10 -5 0
-10 -4 -10 -10z"/>
<path d="M1210 1650 c0 -5 5 -10 11 -10 5 0 7 5 4 10 -3 6 -8 10 -11 10 -2 0
-4 -4 -4 -10z"/>
<path d="M2135 1650 c3 -5 10 -10 16 -10 5 0 9 5 9 10 0 6 -7 10 -16 10 -8 0
-12 -4 -9 -10z"/>
<path d="M2370 1650 c0 -5 7 -10 15 -10 8 0 15 5 15 10 0 6 -7 10 -15 10 -8 0
-15 -4 -15 -10z"/>
<path d="M1310 1641 c0 -6 5 -13 10 -16 6 -3 10 1 10 9 0 9 -4 16 -10 16 -5 0
-10 -4 -10 -9z"/>
<path d="M2220 1640 c0 -5 7 -10 15 -10 8 0 15 5 15 10 0 6 -7 10 -15 10 -8 0
-15 -4 -15 -10z"/>
<path d="M1470 1606 c0 -9 5 -16 10 -16 6 0 10 4 10 9 0 6 -4 13 -10 16 -5 3
-10 -1 -10 -9z"/>
<path d="M1915 1610 c-16 -5 -65 -16 -108 -25 -48 -11 -76 -22 -74 -29 5 -13
22 -11 152 16 107 23 159 49 95 47 -19 0 -48 -5 -65 -9z"/>
<path d="M2145 1610 c-3 -5 -1 -10 4 -10 6 0 11 5 11 10 0 6 -2 10 -4 10 -3 0
-8 -4 -11 -10z"/>
<path d="M2470 1610 c0 -5 5 -10 10 -10 6 0 10 5 10 10 0 6 -4 10 -10 10 -5 0
-10 -4 -10 -10z"/>
<path d="M1360 1570 c0 -5 5 -10 10 -10 6 0 10 5 10 10 0 6 -4 10 -10 10 -5 0
-10 -4 -10 -10z"/>
<path d="M2190 1566 c0 -9 5 -16 10 -16 6 0 10 4 10 9 0 6 -4 13 -10 16 -5 3
-10 -1 -10 -9z"/>
<path d="M1407 1556 c-4 -10 -1 -13 9 -9 15 6 19 23 5 23 -5 0 -11 -7 -14 -14z"/>
<path d="M1680 1550 c0 -5 7 -10 16 -10 8 0 12 5 9 10 -3 6 -10 10 -16 10 -5
0 -9 -4 -9 -10z"/>
<path d="M1229 1477 c-54 -86 -90 -162 -92 -194 -2 -22 8 -28 86 -58 49 -18
90 -35 92 -37 5 -5 -24 -159 -34 -183 -7 -17 -5 -21 13 -23 50 -3 74 -83 35
-118 -11 -10 -26 -32 -33 -49 -8 -17 -27 -43 -44 -57 -24 -20 -28 -27 -17 -32
12 -4 15 -26 15 -99 l0 -93 -57 -20 -58 -19 372 -3 c205 -1 541 -1 745 0 l373
3 -57 19 -58 20 0 92 c0 84 2 93 20 99 18 6 16 10 -20 44 -22 21 -40 46 -40
56 0 10 -11 28 -25 41 -14 13 -25 34 -25 49 0 30 32 65 61 65 12 0 17 4 13 11
-6 10 -44 173 -44 189 0 4 43 24 95 45 85 34 95 41 89 59 -11 38 -84 170 -119
218 l-35 48 -48 -34 c-79 -56 -152 -93 -248 -125 -98 -33 -119 -37 -109 -21
10 15 -6 12 -26 -6 -23 -21 -179 -33 -179 -14 0 10 -3 10 -15 0 -46 -38 -358
57 -504 154 -38 25 -70 46 -72 46 -2 0 -25 -33 -50 -73z m281 -368 c0 -5 -6
-7 -12 -3 -10 6 -10 5 -1 -8 7 -8 10 -18 6 -21 -12 -13 -21 -7 -25 18 -4 19
-1 25 13 25 11 0 19 -5 19 -11z m200 -4 c6 -8 9 -19 5 -25 -11 -17 -22 -11
-27 15 -6 28 3 32 22 10z m95 -34 c-3 -3 -14 0 -25 7 -14 9 -20 9 -23 -1 -3
-9 -7 -9 -17 0 -17 15 -3 35 20 28 10 -3 22 0 26 6 5 9 10 5 16 -11 5 -12 6
-25 3 -29z m305 24 c0 -19 -20 -29 -32 -17 -8 8 -7 16 2 26 14 17 30 12 30 -9z
m77 -8 c-2 -7 -11 -13 -19 -15 -11 -2 -16 4 -14 21 1 21 4 23 19 15 10 -5 16
-15 14 -21z m120 3 c2 -25 -13 -18 -20 9 -3 12 0 18 7 15 6 -2 12 -14 13 -24z
m-857 0 c-6 -11 -13 -20 -16 -20 -2 0 0 9 6 20 6 11 13 20 16 20 2 0 0 -9 -6
-20z m92 11 c8 11 9 11 6 1 -4 -16 -22 -18 -24 -2 -2 7 -1 6 3 -1 4 -8 8 -7
15 2z m38 -11 c-9 -6 -9 -9 1 -13 10 -4 9 -6 -3 -6 -10 -1 -18 5 -18 12 0 18
11 28 22 20 6 -3 5 -9 -2 -13z m43 0 c-3 -11 -7 -20 -9 -20 -2 0 -4 9 -4 20 0
11 4 20 9 20 5 0 7 -9 4 -20z m307 0 c0 -11 -4 -20 -8 -20 -4 0 -8 9 -9 20 -1
11 2 20 8 20 5 0 9 -9 9 -20z m83 0 c3 -12 0 -20 -7 -20 -18 0 -25 10 -19 26
7 20 20 17 26 -6z m37 16 c0 -3 -4 -8 -10 -11 -5 -3 -10 -1 -10 4 0 6 5 11 10
11 6 0 10 -2 10 -4z m180 -22 c0 -8 -7 -14 -15 -14 -15 0 -21 21 -9 33 10 9
24 -2 24 -19z m28 12 c-7 -8 -15 -12 -17 -11 -5 6 10 25 20 25 5 0 4 -6 -3
-14z m-589 -18 c-5 -10 -12 -18 -14 -18 -3 0 -5 8 -5 18 0 10 7 19 14 19 11 0
13 -5 5 -19z m170 0 c-9 -16 -14 -19 -17 -9 -2 7 2 17 9 22 20 13 21 11 8 -13z
m11 -114 c0 -8 -4 -14 -8 -14 -4 0 -8 9 -8 19 0 11 4 17 8 15 4 -3 8 -12 8
-20z m-320 6 c0 -5 -4 -10 -10 -10 -5 0 -10 5 -10 10 0 6 5 10 10 10 6 0 10
-4 10 -10z m40 -7 c0 -14 -2 -15 -9 -4 -7 11 -9 11 -14 0 -4 -10 -6 -9 -6 4
-1 9 6 17 14 17 8 0 15 -8 15 -17z m70 -2 c0 -10 -3 -11 -14 -2 -10 8 -16 9
-21 1 -3 -5 -12 -10 -18 -9 -8 0 -7 3 2 6 10 4 11 7 1 13 -7 5 1 7 19 6 19 0
31 -6 31 -15z m64 4 c-4 -8 -8 -15 -10 -15 -2 0 -4 7 -4 15 0 8 4 15 10 15 5
0 7 -7 4 -15z m100 -2 c5 -13 4 -14 -9 -3 -12 10 -15 9 -16 -6 -1 -17 -2 -17
-6 -2 -3 14 -9 16 -22 8 -10 -5 -21 -6 -25 -3 -14 14 -4 21 33 21 27 1 41 -4
45 -15z m86 2 c0 -8 -4 -15 -9 -15 -13 0 -22 16 -14 24 11 11 23 6 23 -9z m34
0 c-4 -8 -9 -15 -13 -15 -4 0 -8 7 -8 15 0 8 6 15 13 15 8 0 11 -6 8 -15z m74
3 c-6 -18 -28 -21 -28 -4 0 9 7 16 16 16 9 0 14 -5 12 -12z m72 1 c0 -5 -4 -7
-10 -4 -5 3 -11 -2 -11 -12 -1 -17 -2 -17 -6 0 -4 14 -8 16 -19 6 -11 -9 -14
-8 -14 5 0 11 9 16 30 16 17 0 30 -5 30 -11z m24 -4 c-4 -8 -8 -15 -10 -15 -2
0 -4 7 -4 15 0 8 4 15 10 15 5 0 7 -7 4 -15z m46 0 c0 -8 -4 -15 -9 -15 -13 0
-22 16 -14 24 11 11 23 6 23 -9z m30 -1 c0 -8 -4 -12 -10 -9 -5 3 -10 10 -10
16 0 5 5 9 10 9 6 0 10 -7 10 -16z m40 1 c0 -8 -4 -15 -10 -15 -5 0 -10 7 -10
15 0 8 5 15 10 15 6 0 10 -7 10 -15z m27 -7 c-3 -8 -6 -5 -6 6 -1 11 2 17 5
13 3 -3 4 -12 1 -19z m83 13 c0 -4 -6 -8 -12 -8 -7 0 -20 -3 -28 -5 -8 -3 -11
-3 -6 0 4 2 3 8 -3 12 -7 4 1 7 18 8 17 0 31 -3 31 -7z m30 -6 c0 -8 -4 -15
-10 -15 -5 0 -10 7 -10 15 0 8 5 15 10 15 6 0 10 -7 10 -15z m-890 -5 c0 -5
-4 -10 -10 -10 -5 0 -10 5 -10 10 0 6 5 10 10 10 6 0 10 -4 10 -10z"/>
<path d="M1740 1089 c0 -5 5 -7 10 -4 6 3 10 8 10 11 0 2 -4 4 -10 4 -5 0 -10
-5 -10 -11z"/>
<path d="M1525 1530 c3 -5 8 -10 11 -10 2 0 4 5 4 10 0 6 -5 10 -11 10 -5 0
-7 -4 -4 -10z"/>
<path d="M1596 1525 c4 -8 8 -15 10 -15 2 0 4 7 4 15 0 8 -4 15 -10 15 -5 0
-7 -7 -4 -15z"/>
<path d="M2245 1530 c3 -5 8 -10 11 -10 2 0 4 5 4 10 0 6 -5 10 -11 10 -5 0
-7 -4 -4 -10z"/>
<path d="M2150 1515 c0 -8 5 -15 10 -15 6 0 10 7 10 15 0 8 -4 15 -10 15 -5 0
-10 -7 -10 -15z"/>
<path d="M1660 1490 c0 -5 7 -10 16 -10 8 0 12 5 9 10 -3 6 -10 10 -16 10 -5
0 -9 -4 -9 -10z"/>
<path d="M1845 1470 c-3 -5 -1 -10 4 -10 6 0 11 5 11 10 0 6 -2 10 -4 10 -3 0
-8 -4 -11 -10z"/>
<path d="M2130 1459 c0 -5 5 -7 10 -4 6 3 10 8 10 11 0 2 -4 4 -10 4 -5 0 -10
-5 -10 -11z"/>
<path d="M1515 1450 c3 -5 8 -10 11 -10 2 0 4 5 4 10 0 6 -5 10 -11 10 -5 0
-7 -4 -4 -10z"/>
<path d="M1895 1450 c3 -5 8 -10 11 -10 2 0 4 5 4 10 0 6 -5 10 -11 10 -5 0
-7 -4 -4 -10z"/>
<path d="M2215 1450 c3 -5 8 -10 11 -10 2 0 4 5 4 10 0 6 -5 10 -11 10 -5 0
-7 -4 -4 -10z"/>
<path d="M1950 1430 c0 -5 5 -10 10 -10 6 0 10 5 10 10 0 6 -4 10 -10 10 -5 0
-10 -4 -10 -10z"/>
<path d="M1860 1420 c0 -5 5 -10 10 -10 6 0 10 5 10 10 0 6 -4 10 -10 10 -5 0
-10 -4 -10 -10z"/>
<path d="M1675 1409 c-10 -14 -1 -21 19 -13 9 3 13 10 10 15 -7 12 -21 11 -29
-2z"/>
<path d="M1735 1410 c3 -5 10 -10 16 -10 5 0 9 5 9 10 0 6 -7 10 -16 10 -8 0
-12 -4 -9 -10z"/>
<path d="M1977 1404 c-4 -4 -4 -10 -1 -15 6 -10 34 0 34 12 0 10 -24 12 -33 3z"/>
<path d="M1807 1394 c7 -3 9 -13 6 -22 -4 -14 -3 -14 5 -2 12 16 7 30 -11 29
-9 0 -9 -2 0 -5z"/>
<path d="M2025 1381 c-3 -5 -1 -12 5 -16 5 -3 10 1 10 9 0 18 -6 21 -15 7z"/>
<path d="M1750 1370 c0 -5 5 -10 11 -10 5 0 7 5 4 10 -3 6 -8 10 -11 10 -2 0
-4 -4 -4 -10z"/>
<path d="M1935 1360 c3 -5 8 -10 11 -10 2 0 4 5 4 10 0 6 -5 10 -11 10 -5 0
-7 -4 -4 -10z"/>
</g>
</svg>
